<?xml version="1.0" standalone="no"?>
<!DOCTYPE svg PUBLIC "-//W3C//DTD SVG 20010904//EN"
 "http://www.w3.org/TR/2001/REC-SVG-20010904/DTD/svg10.dtd">
<svg version="1.0" xmlns="http://www.w3.org/2000/svg"
 width="726.000000pt" height="396.000000pt" viewBox="0 0 726.000000 396.000000"
 preserveAspectRatio="xMidYMid meet">

<g transform="translate(0.000000,396.000000) scale(0.100000,-0.100000)"
fill="#000000" stroke="none">
<path d="M6060 3690 l-755 -5 -50 -27 c-64 -34 -137 -109 -167 -173 l-23 -50
0 -560 0 -560 340 0 340 0 5 337 c3 185 8 340 13 344 4 4 165 8 357 8 282 1
351 -2 355 -12 3 -8 5 -157 5 -332 0 -175 3 -325 6 -334 5 -14 45 -16 345 -16
l338 0 6 33 c3 17 5 273 3 567 l-3 535 -27 52 c-40 75 -79 115 -145 151 -49
26 -164 57 -182 50 -3 -2 -346 -5 -761 -8z"/>
<path d="M330 3681 c-82 -21 -178 -105 -219 -191 l-26 -55 0 -560 0 -560 343
-3 342 -2 1 37 c0 21 1 168 1 328 0 159 4 299 9 311 l8 22 348 -1 c191 -1 354
-6 361 -10 9 -6 12 -51 12 -166 0 -122 3 -161 14 -170 9 -8 109 -11 347 -9
l334 3 3 340 c3 365 -3 436 -43 514 -32 63 -99 125 -168 156 l-58 25 -792 -1
c-436 -1 -803 -4 -817 -8z"/>
<path d="M2778 3675 c-82 -30 -166 -106 -199 -180 -22 -49 -23 -62 -31 -574
-5 -288 -5 -542 0 -565 l8 -41 339 0 340 0 5 337 c3 185 9 340 13 345 13 12
689 13 705 1 9 -8 12 -54 12 -167 0 -86 4 -162 8 -169 7 -9 83 -12 348 -10
l339 3 3 375 c2 359 1 377 -19 438 -29 86 -108 169 -192 200 -57 22 -62 22
-850 21 -637 0 -799 -3 -829 -14z"/>
<path d="M87 2133 c-13 -12 -7 -100 7 -112 9 -8 108 -11 342 -9 l329 3 0 60 0
60 -336 3 c-184 1 -338 -1 -342 -5z"/>
<path d="M2554 2126 c-3 -7 -4 -35 -2 -62 l3 -49 329 -3 c240 -2 332 1 343 9
9 8 13 28 11 63 l-3 51 -338 3 c-281 2 -338 0 -343 -12z"/>
<path d="M5062 2078 l3 -63 1050 0 1049 0 8 45 c4 25 5 53 2 62 -5 17 -63 18
-1060 18 l-1055 0 3 -62z"/>
<path d="M127 1843 l-48 -4 3 -57 3 -57 340 0 340 0 3 58 c2 31 2 57 0 58 -13
3 -604 5 -641 2z"/>
<path d="M2577 1842 c-27 -3 -28 -5 -25 -60 l3 -57 340 0 340 0 0 55 c0 54 0
54 -35 61 -34 7 -569 8 -623 1z"/>
<path d="M5070 1840 c-7 -4 -10 -28 -8 -61 l3 -54 1052 -3 1051 -2 7 30 c4 16
4 43 0 60 -6 27 -10 30 -48 31 -184 5 -2048 4 -2057 -1z"/>
<path d="M84 1537 c-2 -7 -3 -260 -2 -562 l3 -550 27 -59 c36 -76 103 -140
183 -177 l65 -29 782 0 783 0 56 24 c73 30 141 85 178 146 44 72 52 160 49
540 l-3 325 -341 3 -342 2 -6 -22 c-3 -13 -6 -85 -6 -160 0 -75 -3 -144 -6
-152 -6 -15 -44 -16 -355 -16 -299 1 -351 3 -364 16 -13 13 -15 59 -11 337 2
177 1 327 -1 334 -7 19 -681 19 -689 0z"/>
<path d="M2554 1539 c-4 -7 -7 -258 -6 -559 l0 -547 29 -64 c33 -73 109 -149
183 -183 44 -21 57 -21 835 -24 l790 -3 59 23 c91 35 170 114 202 201 24 67
24 70 24 442 l0 375 -37 0 c-176 3 -648 -2 -654 -6 -4 -2 -8 -77 -8 -165 -1
-89 -4 -165 -7 -170 -3 -5 -157 -9 -343 -9 -308 0 -341 2 -360 18 -21 17 -21
25 -24 347 l-2 330 -337 3 c-247 2 -339 -1 -344 -9z"/>
<path d="M5062 858 l3 -693 340 0 340 0 3 693 2 692 -345 0 -345 0 2 -692z"/>
<path d="M6490 1531 c-12 -24 -14 -1339 -2 -1359 7 -9 83 -12 348 -10 l339 3
3 673 c1 453 -1 679 -8 693 -10 18 -24 19 -340 19 -315 0 -330 -1 -340 -19z"/>
</g>
</svg>
