<?xml version="1.0" standalone="no"?>
<!DOCTYPE svg PUBLIC "-//W3C//DTD SVG 20010904//EN"
 "http://www.w3.org/TR/2001/REC-SVG-20010904/DTD/svg10.dtd">
<svg version="1.0" xmlns="http://www.w3.org/2000/svg"
 width="1280.000000pt" height="720.000000pt" viewBox="0 0 1280.000000 720.000000"
 preserveAspectRatio="xMidYMid meet">

<g transform="translate(0.000000,720.000000) scale(0.100000,-0.100000)"
fill="#000000" stroke="none">
<path d="M3807 7043 c-3 -5 -2 -66 1 -136 l5 -128 41 -27 c59 -38 73 -47 146
-88 36 -21 72 -43 80 -49 8 -7 35 -23 60 -37 25 -13 71 -41 104 -61 l58 -38
-6 -52 c-4 -28 -9 -54 -12 -56 -7 -7 -87 36 -245 133 -35 21 -78 47 -96 57
-17 10 -51 32 -74 48 -64 47 -73 43 -65 -30 4 -33 9 -66 12 -73 3 -7 35 -30
71 -52 37 -21 93 -55 125 -74 31 -19 104 -63 162 -98 57 -34 109 -69 116 -77
12 -15 5 -115 -9 -115 -4 0 -59 32 -124 70 -64 39 -119 70 -122 70 -3 0 -53
31 -112 70 -58 38 -110 67 -115 64 -12 -8 1 -126 16 -141 6 -7 45 -33 86 -58
152 -93 332 -200 355 -213 28 -15 38 -43 33 -93 -2 -22 -9 -35 -20 -37 -16 -3
-231 121 -389 225 -86 56 -93 55 -85 -3 3 -26 6 -79 6 -118 l1 -71 47 -31 c26
-18 67 -43 92 -56 25 -13 66 -38 92 -56 26 -17 50 -32 54 -32 4 0 35 -17 68
-38 34 -21 70 -43 81 -49 11 -7 85 -51 165 -99 80 -48 206 -123 280 -167 74
-44 151 -90 170 -102 19 -12 53 -32 75 -45 22 -13 56 -33 75 -45 98 -62 229
-135 241 -134 8 0 33 13 56 27 112 72 342 209 371 221 18 7 36 11 39 7 7 -6
-7 -53 -33 -111 -12 -29 -22 -51 -69 -165 -13 -30 -44 -104 -70 -165 -89 -210
-86 -201 -67 -217 9 -9 40 -28 67 -43 69 -39 193 -113 235 -139 64 -41 384
-230 436 -258 l51 -27 84 50 c46 28 104 62 129 76 25 14 70 41 100 60 30 19
141 85 245 147 157 94 193 120 209 150 16 29 17 40 8 58 -18 37 -52 116 -52
122 0 3 -16 40 -36 83 -20 43 -39 87 -44 98 -4 11 -20 49 -36 85 -99 232 -95
240 69 140 53 -33 99 -60 102 -60 2 0 54 -31 114 -70 61 -38 115 -70 122 -70
11 0 120 62 149 85 8 7 35 23 60 36 25 13 59 34 76 46 17 13 34 23 37 23 4 0
71 39 149 87 79 47 168 100 198 118 30 17 73 42 95 56 23 13 50 29 60 36 11 6
88 52 170 101 83 49 170 102 195 116 25 15 68 41 95 58 28 17 71 42 97 55 26
13 49 27 52 31 8 13 10 231 2 239 -4 4 -13 3 -21 -2 -53 -38 -163 -110 -233
-151 -176 -105 -213 -124 -222 -119 -6 4 -10 33 -10 66 0 48 4 61 18 66 15 6
170 96 212 124 8 5 30 19 49 32 19 12 73 43 120 68 l86 46 3 79 c3 76 2 77
-16 61 -10 -9 -25 -17 -32 -17 -7 0 -29 -12 -49 -27 -73 -56 -364 -224 -378
-219 -10 4 -13 20 -11 63 l3 57 170 101 c94 55 189 113 212 128 24 15 46 27
50 27 5 0 18 8 30 18 19 14 23 28 24 80 1 34 -1 65 -4 68 -3 3 -45 -20 -94
-52 -48 -32 -110 -70 -138 -85 -27 -15 -79 -45 -115 -68 -89 -56 -106 -65
-123 -58 -17 6 -31 69 -22 96 4 15 106 82 185 124 8 4 42 24 76 45 34 20 100
60 147 87 l86 50 1 133 c0 72 -4 132 -8 132 -5 0 -27 -12 -49 -27 -57 -40
-205 -132 -283 -175 -19 -11 -42 -26 -50 -33 -8 -7 -37 -25 -65 -39 -27 -15
-70 -40 -95 -56 -25 -16 -63 -39 -85 -51 -22 -12 -86 -51 -143 -85 -56 -35
-105 -64 -107 -64 -2 0 -35 -19 -72 -42 -91 -57 -98 -61 -173 -104 -36 -21
-162 -97 -280 -169 -118 -72 -223 -134 -232 -138 -10 -3 -44 -23 -75 -44 -32
-20 -68 -43 -80 -49 -12 -7 -126 -74 -252 -149 l-229 -137 -6 -78 c-4 -43 -6
-145 -5 -227 l2 -150 -64 -109 c-36 -60 -70 -121 -77 -136 -19 -45 -39 -33
-82 50 -22 42 -55 100 -73 127 l-32 50 -3 231 -3 232 -82 52 c-76 47 -303 184
-365 220 -15 9 -120 72 -235 140 -215 130 -346 208 -432 258 -44 25 -246 147
-285 172 -8 5 -55 33 -105 61 -49 29 -148 88 -220 132 -71 44 -143 87 -158 96
-16 9 -36 21 -45 26 -9 6 -83 50 -164 98 -81 48 -150 92 -153 97 -9 15 -43 31
-48 23z"/>
<path d="M4546 7010 c-22 -14 -29 -27 -31 -53 -2 -30 2 -37 31 -51 20 -9 36
-12 39 -6 3 6 15 10 26 10 14 0 19 7 19 29 0 16 3 36 6 45 4 11 0 16 -12 16
-9 0 -25 6 -33 14 -14 11 -20 11 -45 -4z"/>
<path d="M7926 7009 c-23 -14 -30 -26 -30 -51 -1 -43 42 -69 90 -54 29 9 31
13 29 56 -1 36 -6 46 -21 49 -10 2 -23 7 -29 11 -5 4 -23 -1 -39 -11z"/>
<path d="M5330 6691 c0 -5 -13 -23 -29 -40 -22 -23 -38 -31 -63 -31 -45 0 -50
-7 -33 -41 19 -36 19 -66 0 -103 -22 -42 -19 -46 30 -46 44 0 85 -24 85 -50 0
-22 37 -8 53 20 17 27 23 30 73 30 30 0 54 2 54 5 0 2 -9 19 -20 37 -25 42
-25 74 0 116 l20 32 -41 0 c-51 0 -75 13 -94 50 -15 28 -35 40 -35 21z"/>
<path d="M7152 6660 c-30 -36 -38 -40 -78 -40 l-46 0 21 -34 c24 -39 26 -71 6
-106 -24 -42 -19 -50 29 -50 38 0 48 -4 66 -30 12 -16 27 -30 34 -30 7 0 22
14 34 30 20 26 29 30 72 30 53 0 58 4 35 34 -8 11 -15 38 -15 61 0 23 7 50 15
61 22 30 18 34 -30 34 -31 0 -50 6 -60 18 -7 9 -22 27 -32 39 l-18 23 -33 -40z"/>
<path d="M6232 6314 c-42 -71 -46 -74 -122 -74 -63 0 -94 -10 -71 -24 4 -3 21
-31 36 -62 l28 -57 -37 -69 -37 -68 66 0 c81 0 96 -7 129 -64 14 -25 30 -48
36 -51 5 -3 25 19 44 49 31 49 58 70 82 65 5 -1 33 -1 62 0 l53 1 -36 63 c-19
35 -35 70 -35 78 0 8 16 40 35 72 19 32 35 60 35 63 0 2 -33 4 -73 4 -81 0
-90 6 -136 83 -13 20 -25 37 -27 37 -2 0 -17 -21 -32 -46z"/>
<path d="M3968 3603 c-15 -2 -52 -26 -81 -52 -87 -81 -88 -83 -85 -516 l3
-370 229 -3 c164 -2 232 1 237 9 4 6 5 109 2 228 -2 119 0 221 4 228 6 8 83
12 256 14 210 3 250 1 257 -11 6 -8 10 -63 10 -122 l0 -108 236 0 235 0 -3
268 c-3 251 -4 269 -25 307 -12 22 -36 54 -55 72 -68 64 -54 63 -652 62 -297
-1 -553 -4 -568 -6z"/>
<path d="M5672 3597 c-48 -15 -117 -84 -138 -137 -15 -39 -18 -90 -22 -397 -2
-194 -1 -364 2 -378 l6 -25 233 2 232 3 3 231 c2 170 6 234 15 240 6 5 122 7
257 4 l245 -5 3 -117 3 -118 234 0 235 0 0 268 c0 238 -2 271 -19 308 -23 49
-88 107 -140 122 -51 16 -1101 15 -1149 -1z"/>
<path d="M7405 3589 c-56 -29 -94 -67 -116 -114 -17 -37 -19 -72 -19 -428 l0
-387 233 2 232 3 5 239 5 239 249 -1 c187 -1 251 -5 257 -14 4 -7 8 -111 8
-231 -1 -121 3 -223 8 -228 5 -5 108 -8 234 -7 l224 3 0 390 c0 388 0 390 -23
427 -33 52 -95 105 -139 117 -25 7 -228 11 -578 11 -530 0 -541 0 -580 -21z"/>
<path d="M3820 2528 c-17 -6 -21 -15 -18 -40 l3 -33 230 0 230 0 3 29 c2 16
-1 33 -8 40 -13 13 -405 17 -440 4z"/>
<path d="M5537 2532 c-14 -3 -17 -12 -15 -40 l3 -37 230 0 230 0 3 29 c2 16
-2 34 -8 40 -10 10 -394 17 -443 8z"/>
<path d="M7303 2532 c-31 -3 -33 -6 -33 -43 l0 -40 725 2 726 3 -3 40 -3 41
-690 0 c-379 0 -705 -1 -722 -3z"/>
<path d="M3816 2317 c-11 -8 -17 -22 -14 -38 l3 -24 230 0 230 0 0 35 0 35
-215 3 c-167 2 -220 -1 -234 -11z"/>
<path d="M5524 2316 c-3 -8 -4 -25 -2 -38 l3 -23 230 0 230 0 0 35 0 35 -228
3 c-191 2 -228 0 -233 -12z"/>
<path d="M7267 2303 c-11 -56 -53 -53 730 -53 l724 0 -3 38 -3 37 -721 3 -722
2 -5 -27z"/>
<path d="M3813 2119 c-10 -10 -13 -101 -13 -385 0 -413 0 -410 67 -485 75 -83
41 -79 668 -79 634 0 592 -5 678 90 44 49 45 52 52 133 3 45 5 172 3 282 l-3
200 -210 3 c-115 1 -220 0 -232 -3 -20 -5 -21 -12 -25 -109 -2 -69 -7 -110
-16 -118 -19 -19 -447 -24 -482 -5 l-25 13 3 219 c2 132 -1 226 -7 234 -13 21
-440 30 -458 10z"/>
<path d="M5530 2120 c-9 -6 -12 -107 -13 -386 0 -372 1 -380 23 -426 24 -53
76 -103 126 -124 27 -11 140 -14 589 -14 621 0 590 -3 662 72 60 62 63 80 63
373 l0 265 -232 -2 -233 -3 -3 -109 c-1 -61 -8 -116 -14 -123 -13 -16 -441
-19 -482 -3 l-26 10 0 229 c0 171 -3 232 -12 237 -16 10 -433 13 -448 4z"/>
<path d="M7308 2123 l-38 -4 0 -475 0 -474 235 0 235 0 0 469 c0 294 -4 472
-10 476 -12 7 -370 14 -422 8z"/>
<path d="M8270 2120 c-8 -5 -12 -146 -13 -476 l-2 -469 238 -3 237 -2 0 469
c0 365 -3 472 -12 478 -16 10 -433 12 -448 3z"/>
<path d="M3812 652 c-9 -6 -12 -41 -10 -138 l3 -129 72 -3 c71 -3 73 -2 79 24
9 33 -13 50 -37 28 -10 -9 -30 -14 -46 -12 l-28 3 -3 92 c-3 92 -3 92 23 99
18 4 32 1 45 -11 27 -24 52 -12 48 22 -3 27 -5 28 -68 31 -36 1 -71 -2 -78 -6z"/>
<path d="M4023 653 c-10 -3 -13 -41 -13 -140 0 -123 2 -134 18 -131 13 2 18
16 22 58 5 52 7 55 34 58 36 4 46 -10 46 -71 0 -41 3 -48 18 -45 15 3 17 18
20 118 4 163 5 160 -71 159 -34 0 -68 -3 -74 -6z m97 -47 c6 -8 10 -25 8 -38
-2 -19 -9 -23 -38 -23 -31 0 -35 3 -38 29 -5 42 41 64 68 32z"/>
<path d="M4227 648 c-6 -17 -6 -119 0 -135 3 -8 22 -13 48 -13 48 0 68 -17 63
-52 -4 -29 -47 -36 -81 -13 -30 19 -42 7 -33 -31 6 -23 11 -24 75 -24 68 0 69
0 73 29 2 16 2 51 -1 77 l-6 49 -50 5 c-50 5 -50 5 -50 40 0 30 4 35 26 38 14
2 31 -4 39 -12 22 -28 40 -19 40 19 l0 35 -69 0 c-46 0 -70 -4 -74 -12z"/>
<path d="M4430 520 c0 -129 1 -141 18 -138 13 3 17 14 17 48 1 56 9 70 40 70
31 0 40 -15 40 -70 0 -35 4 -45 18 -48 16 -3 17 7 15 135 l-3 138 -72 3 -73 3
0 -141z m104 85 c22 -22 6 -59 -27 -63 -21 -3 -30 3 -38 22 -21 45 29 76 65
41z"/>
<path d="M4764 647 c-2 -7 -3 -69 -2 -138 l3 -124 75 0 75 0 3 129 c2 97 -1
131 -10 138 -22 13 -138 10 -144 -5z m114 -39 c16 -16 16 -160 0 -176 -13 -13
-68 -17 -68 -4 -8 124 -7 178 3 184 18 12 52 9 65 -4z"/>
<path d="M4979 638 c-2 -13 -3 -76 -1 -141 l3 -118 72 3 c56 2 72 6 72 18 0
11 -15 16 -55 20 l-55 5 0 35 c0 34 1 35 43 38 34 3 43 7 40 20 -2 11 -16 19
-37 22 -41 6 -61 32 -45 58 7 11 28 19 60 22 35 4 49 9 49 20 0 12 -16 16 -71
18 -68 3 -72 2 -75 -20z"/>
<path d="M5322 652 c-9 -7 -12 -41 -10 -138 l3 -129 69 -3 c72 -3 86 4 86 41
0 19 -30 23 -47 6 -6 -6 -23 -9 -39 -7 l-29 3 0 95 0 95 26 3 c15 2 34 -4 43
-13 18 -19 46 -13 46 9 0 39 -11 46 -74 46 -33 0 -67 -4 -74 -8z"/>
<path d="M5940 641 c0 -13 8 -21 23 -23 21 -3 22 -8 27 -118 4 -98 7 -115 22
-118 16 -3 18 9 20 115 l3 118 28 3 c19 2 27 9 27 23 0 17 -8 19 -75 19 -67 0
-75 -2 -75 -19z"/>
<path d="M6149 658 c-3 -11 -4 -256 -1 -265 3 -9 28 -13 78 -13 l74 0 0 136
c0 124 -2 135 -17 132 -16 -3 -19 -19 -23 -113 l-5 -110 -35 0 -35 0 -3 118
c-2 95 -5 117 -17 117 -8 0 -15 -1 -16 -2z"/>
<path d="M6355 647 c-3 -7 -4 -69 -3 -137 3 -110 5 -125 21 -128 14 -3 17 4
17 46 0 55 15 75 52 70 20 -3 24 -10 28 -58 4 -41 9 -56 22 -58 15 -3 17 10
15 135 l-2 138 -73 3 c-54 2 -74 -1 -77 -11z m110 -67 c0 -33 -2 -35 -35 -35
-29 0 -36 4 -38 23 -5 32 16 54 47 50 22 -3 26 -8 26 -38z"/>
<path d="M6564 647 c-2 -7 -3 -69 -2 -138 3 -116 4 -124 23 -124 17 0 21 8 25
55 5 53 6 55 35 55 30 0 30 -1 33 -58 3 -54 5 -58 25 -55 21 3 22 8 25 121 3
153 1 157 -89 157 -48 0 -71 -4 -75 -13z m104 -36 c8 -5 12 -21 10 -37 -3 -25
-7 -29 -33 -29 -24 0 -31 5 -33 23 -7 46 20 66 56 43z"/>
<path d="M6913 653 c-10 -3 -13 -41 -13 -139 0 -112 2 -134 15 -134 17 0 30
42 21 66 -9 25 12 54 40 54 28 0 37 -16 38 -74 1 -30 5 -42 19 -44 15 -3 17 9
17 137 l0 141 -62 -1 c-35 0 -69 -3 -75 -6z m97 -53 c15 -28 -4 -60 -36 -60
-31 0 -54 41 -34 65 18 21 57 19 70 -5z"/>
<path d="M7203 653 l-92 -4 -5 -52 c-3 -29 -5 -88 -3 -132 2 -75 4 -80 25 -83
22 -3 22 -2 22 113 0 125 4 134 55 121 25 -6 25 -7 25 -122 0 -105 2 -115 18
-112 15 3 17 18 20 116 3 110 3 112 27 118 47 12 55 -8 55 -128 0 -99 2 -109
18 -106 21 4 27 81 15 198 l-8 75 -40 1 c-22 0 -81 -1 -132 -3z"/>
<path d="M7440 520 l0 -141 73 3 c56 2 72 6 72 18 0 11 -14 16 -50 20 -50 5
-50 5 -50 40 0 33 2 35 38 38 28 2 37 8 37 22 0 14 -9 20 -37 22 -36 3 -38 5
-38 38 0 35 0 35 50 38 47 3 70 16 59 34 -3 4 -39 8 -80 8 l-74 0 0 -140z"/>
<path d="M7645 561 c-9 -121 0 -184 23 -179 13 3 17 15 17 48 1 56 9 70 40 70
30 0 45 -26 45 -79 0 -29 4 -41 14 -41 13 0 15 23 13 138 l-2 137 -71 3 -72 3
-7 -100z m110 19 c0 -32 -2 -35 -30 -35 -24 0 -31 5 -33 23 -6 38 5 54 35 50
25 -3 28 -7 28 -38z"/>
<path d="M7860 520 c0 -118 2 -140 15 -140 13 0 15 22 15 140 0 118 -2 140
-15 140 -13 0 -15 -22 -15 -140z"/>
<path d="M7963 653 c-10 -3 -13 -41 -13 -139 l0 -134 75 0 75 0 0 29 c0 36
-19 50 -35 28 -7 -10 -26 -17 -44 -17 -34 0 -33 -4 -36 105 -1 33 2 68 7 78
11 21 51 22 68 2 22 -27 40 -18 40 20 l0 35 -62 -1 c-35 0 -69 -3 -75 -6z"/>
<path d="M8167 654 c-4 -4 -7 -67 -7 -141 0 -112 2 -133 15 -133 11 0 15 12
15 49 0 54 15 74 52 69 20 -3 24 -10 28 -58 4 -42 9 -56 23 -58 16 -3 17 7 15
135 l-3 138 -65 3 c-36 2 -69 0 -73 -4z m98 -74 c0 -29 -4 -36 -23 -38 -43 -6
-69 37 -40 66 7 7 24 12 38 10 21 -3 25 -8 25 -38z"/>
<path d="M8365 647 c-3 -7 -4 -69 -3 -137 3 -110 5 -125 21 -128 15 -3 17 7
17 106 0 120 8 140 55 128 25 -6 25 -7 25 -121 0 -109 1 -115 20 -115 20 0 20
5 18 138 l-3 137 -73 3 c-54 2 -74 -1 -77 -11z"/>
<path d="M8587 653 c-16 -4 -17 -17 -15 -136 3 -115 5 -132 20 -135 14 -3 17
6 20 55 l3 58 35 0 35 0 3 -57 c3 -50 6 -58 23 -58 19 0 19 6 17 138 l-3 137
-60 2 c-33 0 -68 -1 -78 -4z m87 -39 c10 -4 16 -18 16 -41 0 -33 -1 -34 -37
-31 -31 2 -39 7 -41 26 -6 40 23 61 62 46z"/>
<path d="M5520 516 l0 -136 70 0 c67 0 71 1 81 27 5 14 8 74 7 132 -3 91 -5
106 -20 109 -15 3 -18 -9 -20 -110 l-3 -113 -37 -3 -37 -3 -3 113 c-3 98 -5
113 -20 116 -16 3 -18 -8 -18 -132z"/>
<path d="M5730 516 l0 -136 75 0 c68 0 75 2 75 20 0 18 -7 20 -55 20 l-54 0
-3 112 c-3 98 -5 113 -20 116 -16 3 -18 -8 -18 -132z"/>
</g>
</svg>
